
<svg t="1724762819334" class="icon" viewBox="0 0 1792 1024" version="1.1" xmlns="http://www.w3.org/2000/svg" p-id="7052" width="200" height="200"><path d="M894.208 1009.0496c24.576-1.28 37.376-13.44 38.528-36.864a33.024 33.024 0 0 0-2.56-13.056 332.416 332.416 0 0 0-7.936-16.64 805.12 805.12 0 0 1-94.464-203.008 763.136 763.136 0 0 1-33.28-224.896c0-77.568 10.752-153.344 32.384-227.456a769.536 769.536 0 0 1 95.36-207.36c3.456-5.888 6.144-10.752 7.936-14.848a37.76 37.76 0 0 0 2.56-14.848 32.768 32.768 0 0 0-10.496-25.472 39.808 39.808 0 0 0-28.032-9.6 62.72 62.72 0 0 0-32.384 8.704 105.344 105.344 0 0 0-30.592 31.616 684.416 684.416 0 0 0-112.896 212.48 788.608 788.608 0 0 0-37.632 244.224 728.704 728.704 0 0 0 150.528 456.704c10.496 14.08 20.736 24.32 30.72 30.72 9.856 6.4 20.608 9.6 32.256 9.6z m684.288 0a54.272 54.272 0 0 0 31.488-9.728c9.344-6.4 19.2-16.64 29.696-30.592A723.456 723.456 0 0 0 1792 512.0256c0-85.248-12.544-166.528-37.632-244.096a665.472 665.472 0 0 0-114.688-212.608 111.616 111.616 0 0 0-29.696-31.616 58.24 58.24 0 0 0-31.488-8.704 39.808 39.808 0 0 0-28.032 9.6 32.768 32.768 0 0 0-10.496 25.472c0 5.76 0.64 10.496 1.792 13.952a76.8 76.8 0 0 0 8.704 15.744c41.984 64.128 73.856 133.248 95.36 207.36 21.632 74.112 32.384 149.888 32.384 227.456 0 77.568-11.008 152.576-33.28 224.896a805.12 805.12 0 0 1-94.464 203.008 332.416 332.416 0 0 0-7.808 16.64 33.024 33.024 0 0 0-2.56 13.056c0 11.776 3.328 20.48 10.368 26.368a50.56 50.56 0 0 0 28.032 10.496zM90.88 1007.2576c64.128 0 113.792-16 148.736-48.128 34.944-32 60.16-85.504 75.264-160.128l76.928-367.488h120.832a69.888 69.888 0 0 0 46.336-14.08 54.784 54.784 0 0 0 18.432-40.192c-1.28-30.336-18.176-46.08-50.816-47.232h-113.664l19.2-90.88c8.192-42.24 20.992-72.704 38.4-92.032 17.536-19.2 44.416-28.16 80.64-27.136a295.68 295.68 0 0 1 27.904-1.664c33.92-3.584 50.176-19.2 49.024-47.36 0-37.248-31.744-55.936-95.36-55.936s-113.152 16.896-148.736 50.816c-35.584 33.792-60.928 86.272-76.16 157.44l-22.784 106.752h-82.176a81.536 81.536 0 0 0-47.36 15.744 45.696 45.696 0 0 0-17.408 37.632c0 15.744 4.352 27.648 13.184 35.84 8.704 8.192 21.248 12.288 37.632 12.288h75.136l-73.472 351.744c-8.192 43.136-20.992 74.112-38.4 92.8-17.536 18.56-44.416 27.904-80.64 27.904H47.36C15.616 908.6976 0 924.9536 0 953.1136c0 36.224 30.336 54.272 90.88 54.272z m943.232-176.64a60.416 60.416 0 0 0 28.928-7.168 76.544 76.544 0 0 0 25.344-24.448l146.944-209.92h1.792l150.528 213.376c8.064 11.648 16.256 19.2 24.448 22.784a61.824 61.824 0 0 0 24.448 5.248c16.384 0 29.44-4.992 39.424-14.848a47.872 47.872 0 0 0 14.848-35.072 59.136 59.136 0 0 0-14.08-37.504L1305.6 510.2336l171.52-230.912a51.456 51.456 0 0 0 13.056-37.632 46.976 46.976 0 0 0-15.744-35.072 50.048 50.048 0 0 0-34.048-13.056 56.576 56.576 0 0 0-52.48 31.488l-141.824 206.464h-1.664l-143.616-208.256a58.496 58.496 0 0 0-54.144-29.696 54.016 54.016 0 0 0-38.528 14.848 47.616 47.616 0 0 0-15.744 35.84c0 18.688 5.12 33.28 15.744 43.776l162.688 218.752-173.184 239.744a55.04 55.04 0 0 0-13.184 37.632 46.592 46.592 0 0 0 14.976 33.28 49.152 49.152 0 0 0 34.944 13.056z" p-id="7053" fill="#409EFF"></path></svg>